#!OML:ASF E:\motion texture\Top Level 1\Subject 1\Session 1\male.ASF
:FULLY-SPECIFIED
:DEGREES
362
root 6.3931 17.8112 4.57794 54.6626 -82.1382 -48.7814
lowerback -1.4914 -0.436741 2.47141
upperback -3.69004 -0.602703 1.84507
thorax -2.96036 -0.372422 0.520697
lowerneck -12.5561 -9.09571 -10.3625
upperneck 15.1804 -12.5448 10.7278
head 8.1101 -5.73555 3.77341
rclavicle -2.06239e-015 1.98785e-015
rhumerus 29.9056 44.2573 -32.5632
rradius 74.6147
rwrist 26.7868
rhand -22.4238 -23.565
rfingers 7.12502
rthumb 3.99954 -53.5072
lclavicle -2.06239e-015 1.98785e-015
lhumerus -45.2453 32.0246 62.7351
lradius 23.2491
lwrist -36.8515
lhand -10.4492 20.4529
lfingers 7.12502
lthumb 15.5511 49.8476
rfemur -25.9106 0.448326 26.5883
rtibia 20.8663
rfoot -0.658166 -10.7916
rtoes 19.6303
lfemur -4.12565 -2.06057 -11.2791
ltibia 39.7885
lfoot -1.70031 -3.03449
ltoes -19.7755
363
root 6.24635 17.8243 4.56325 57.5391 -82.146 -51.7108
lowerback -1.45716 -0.361729 2.8047
upperback -3.70029 -0.500264 1.94252
thorax -2.99229 -0.330728 0.434019
lowerneck -12.473 -9.14721 -10.3621
upperneck 15.1337 -12.6623 10.9122
head 8.10648 -5.7811 3.82115
rclavicle 1.15419e-014 -2.72335e-014
rhumerus 31.9379 46.0893 -31.5091
rradius 75.9726
rwrist 26.6505
rhand -22.3236 -22.976
rfingers 7.12502
rthumb 4.09628 -52.9164
lclavicle 1.15419e-014 -2.72335e-014
lhumerus -44.886 31.7545 63.5528
lradius 23.3657
lwrist -36.5954
lhand -10.4524 20.3545
lfingers 7.12502
lthumb 15.5479 49.7494
rfemur -25.3666 0.647107 27.0552
rtibia 20.9135
rfoot -0.847908 -10.4386
rtoes 20
lfemur -4.95518 -1.81303 -10.8786
ltibia 41.2752
lfoot -0.943878 -3.15505
ltoes -19.6557
364
root 6.10048 17.8375 4.54896 60.3446 -82.1302 -54.5709
lowerback -1.41605 -0.283561 3.13637
upperback -3.70839 -0.39315 2.03543
thorax -3.02515 -0.286852 0.343559
lowerneck -12.3907 -9.20043 -10.3643
upperneck 15.0851 -12.7818 11.0987
head 8.1032 -5.82772 3.8696
rclavicle 3.10601e-015 -1.78906e-015
rhumerus 34.0687 47.83 -30.3335
rradius 77.2935
rwrist 26.4829
rhand -22.2188 -22.3447
rfingers 7.12502
rthumb 4.19748 -52.2831
lclavicle 3.10601e-015 -1.78906e-015
lhumerus -44.4889 31.4215 64.4327
lradius 23.5356
lwrist -36.269
lhand -10.4713 20.2592
lfingers 7.12502
lthumb 15.5297 49.6556
rfemur -24.8054 0.840507 27.5111
rtibia 20.9361
rfoot -1.05629 -10.0983
rtoes 20.3464
lfemur -5.81616 -1.56545 -10.4838
ltibia 42.7416
lfoot -0.245938 -3.27865
ltoes -19.5029
365
root 5.95557 17.8507 4.53514 63.0633 -82.0918 -57.3453
lowerback -1.37222 -0.201761 3.46522
upperback -3.71285 -0.280895 2.12483
thorax -3.05493 -0.240445 0.250956
lowerneck -12.3072 -9.25579 -10.3687
upperneck 15.0315 -12.9035 11.2866
head 8.09889 -5.87568 3.9186
rclavicle 1.48095e-014 -4.27387e-014
rhumerus 36.2881 49.465 -29.0427
rradius 78.5745
rwrist 26.2842
rhand -22.1101 -21.6695
rfingers 7.12502
rthumb 4.30241 -51.6058
lclavicle 1.48095e-014 -4.27387e-014
lhumerus -44.0562 31.0285 65.3696
lradius 23.758
lwrist -35.8797
lhand -10.5036 20.1688
lfingers 7.12502
lthumb 15.4986 49.5676
rfemur -24.2293 1.02826 27.9567
rtibia 20.9354
rfoot -1.28404 -9.77086
rtoes 20.6706
lfemur -6.70644 -1.31902 -10.0946
ltibia 44.1796
lfoot 0.386034 -3.40142
ltoes -19.3127
366
root 5.81165 17.8638 4.52187 65.6665 -82.0347 -60.0044
lowerback -1.32534 -0.117178 3.78779
upperback -3.71389 -0.164608 2.21041
thorax -3.08201 -0.191939 0.157863
lowerneck -12.2256 -9.31331 -10.3749
upperneck 14.9746 -13.0272 11.4742
head 8.09447 -5.92477 3.96739
rclavicle 5.55355e-015 -3.598e-014
rhumerus 38.583 50.9855 -27.648
rradius 79.8129
rwrist 26.0562
rhand -22.0041 -20.9409
rfingers 7.12502
rthumb 4.4048 -50.8751
lclavicle 5.55355e-015 -3.598e-014
lhumerus -43.5928 30.5747 66.3586
lradius 24.0334
lwrist -35.4288
lhand -10.548 20.0762
lfingers 7.12502
lthumb 15.4559 49.4783
rfemur -23.6401 1.20698 28.3888
rtibia 20.9148
rfoot -1.53545 -9.45423
rtoes 20.9677
lfemur -7.62286 -1.07642 -9.71566
ltibia 45.5808
lfoot 0.945893 -3.52183
ltoes -19.099
367
root 5.66874 17.8767 4.50921 68.1406 -81.9598 -62.5347
lowerback -1.2734 -0.0301277 4.10452
upperback -3.71341 -0.0445294 2.29196
thorax -3.10945 -0.14152 0.06381
lowerneck -12.1438 -9.37245 -10.3835
upperneck 14.9157 -13.1525 11.6628
head 8.09007 -5.9749 4.01665
rclavicle 1.38652e-014 -9.14409e-015
rhumerus 40.9294 52.386 -26.1708
rradius 81.0053
rwrist 25.8028
rhand -21.8941 -20.1688
rfingers 7.12502
rthumb 4.51105 -50.1007
lclavicle 1.38652e-014 -9.14409e-015
lhumerus -43.1072 30.0591 67.39
lradius 24.3617
lwrist -34.9224
lhand -10.6043 19.9829
lfingers 7.12502
lthumb 15.4016 49.3892
rfemur -23.0388 1.37413 28.8087
rtibia 20.8772
rfoot -1.81074 -9.14779
rtoes 21.2299
lfemur -8.56131 -0.83893 -9.34678
ltibia 46.9358
lfoot 1.43044 -3.63744
ltoes -18.8678
368
root 5.52689 17.8894 4.4972 70.4702 -81.8704 -64.9203
lowerback -1.21841 0.0587406 4.41304
upperback -3.7105 0.0783619 2.36969
thorax -3.13514 -0.0895427 -0.0296684
lowerneck -12.0628 -9.4328 -10.3956
upperneck 14.854 -13.2786 11.8531
head 8.08568 -6.02564 4.06682
rclavicle -2.34814e-015 3.67752e-015
rhumerus 43.3026 53.6606 -24.6333
rradius 82.1494
rwrist 25.5246
rhand -21.789 -19.3345
rfingers 7.12502
rthumb 4.61247 -49.2643
lclavicle -2.34814e-015 3.67752e-015
lhumerus -42.6047 29.487 68.4551
lradius 24.7415
lwrist -34.3697
lhand -10.6514 19.9102
lfingers 7.12502
lthumb 15.3563 49.32
rfemur -22.4267 1.5293 29.2142
rtibia 20.8228
rfoot -2.10306 -8.85223
rtoes 21.4679
lfemur -9.51919 -0.60816 -8.99
ltibia 48.2379
lfoot 1.83488 -3.74654
ltoes -18.6146
369
root 5.38612 17.9018 4.48589 72.6452 -81.7698 -67.1496
lowerback -1.15997 0.149283 4.71245
upperback -3.70685 0.203952 2.44217
thorax -3.16105 -0.036094 -0.123552
lowerneck -11.9817 -9.49454 -10.4095
upperneck 14.7908 -13.4061 12.0436
head 8.08142 -6.07731 4.11711
rclavicle -2.76746e-015 5.46658e-015
rhumerus 45.6666 54.8077 -23.0689
rradius 83.2409
rwrist 25.2266
rhand -21.692 -18.4387
rfingers 7.12502
rthumb 4.70613 -48.3665
lclavicle -2.76746e-015 5.46658e-015
lhumerus -42.0925 28.8577 69.5445
lradius 25.1726
lwrist -33.7757
lhand -10.7046 19.8375
lfingers 7.12502
lthumb 15.3051 49.2512
rfemur -21.8071 1.67195 29.6031
rtibia 20.7525
rfoot -2.40495 -8.57048
rtoes 21.6884
lfemur -10.4938 -0.386209 -8.64774
ltibia 49.4781
lfoot 2.16076 -3.84634
ltoes -18.3481
370
root 5.24648 17.9138 4.47529 74.657 -81.6601 -69.2143
lowerback -1.09958 0.240706 4.99947
upperback -3.70104 0.33106 2.51123
thorax -3.1849 0.0184345 -0.214137
lowerneck -11.903 -9.55752 -10.427
upperneck 14.7268 -13.5342 12.2343
head 8.07802 -6.12949 4.16782
rclavicle -4.17137e-015 1.33186e-014
rhumerus 47.9922 55.8282 -21.5016
rradius 84.2787
rwrist 24.9139
rhand -21.6077 -17.4925
rfingers 7.12502
rthumb 4.78754 -47.4184
lclavicle -4.17137e-015 1.33186e-014
lhumerus -41.5743 28.1785 70.6523
lradius 25.6532
lwrist -33.1476
lhand -10.7807 19.7372
lfingers 7.12502
lthumb 15.2317 49.1565
rfemur -21.1804 1.80148 29.9749
rtibia 20.6662
rfoot -2.71392 -8.30776
rtoes 21.8817
lfemur -11.4798 -0.176683 -8.32078
ltibia 50.6464
lfoot 2.40731 -3.93611
ltoes -18.0784
371
root 5.10794 17.9255 4.46545 76.5084 -81.5443 -71.1167
lowerback -1.03942 0.333269 5.27215
upperback -3.69252 0.459827 2.57694
thorax -3.20489 0.074245 -0.300285
lowerneck -11.8272 -9.62211 -10.4472
upperneck 14.6615 -13.6634 12.4246
head 8.07534 -6.18237 4.21851
rclavicle -3.78933e-016 3.31473e-014
rhumerus 50.2391 56.7243 -19.9687
rradius 85.2612
rwrist 24.5917
rhand -21.5239 -16.5324
rfingers 7.12502
rthumb 4.86845 -46.4564
lclavicle -3.78933e-016 3.31473e-014
lhumerus -41.0548 27.4536 71.7709
lradius 26.1817
lwrist -32.4943
lhand -10.8618 19.6332
lfingers 7.12502
lthumb 15.1537 49.0583
rfemur -20.5472 1.91885 30.3283
rtibia 20.5619
rfoot -3.02921 -8.06561
rtoes 22.0401
lfemur -12.4741 0.0202131 -8.01025
ltibia 51.7368
lfoot 2.57289 -4.0115
ltoes -17.8206
372
root 4.97049 17.9367 4.45642 78.2064 -81.4233 -72.8637
lowerback -0.977349 0.426361 5.53224
upperback -3.68278 0.589639 2.63911
thorax -3.22386 0.130912 -0.383143
lowerneck -11.755 -9.68781 -10.4695
upperneck 14.5975 -13.7931 12.6133
head 8.07415 -6.23569 4.26871
rclavicle -1.16724e-014 -8.29926e-015
rhumerus 52.3653 57.5038 -18.5106
rradius 86.1846
rwrist 24.2664
rhand -21.4481 -15.538
rfingers 7.12502
rthumb 4.94165 -45.4604
lclavicle -1.16724e-014 -8.29926e-015
lhumerus -40.5413 26.6856 72.8912
lradius 26.7563
lwrist -31.8194
lhand -10.9467 19.5256
lfingers 7.12502
lthumb 15.0718 48.9569
rfemur -19.9086 2.02485 30.6646
rtibia 20.4398
rfoot -3.3508 -7.84314
rtoes 22.1603
lfemur -13.4721 0.203634 -7.7147
ltibia 52.7412
lfoot 2.6601 -4.07155
ltoes -17.5696
373
root 4.83415 17.9474 4.44822 79.7581 -81.2986 -74.4614
lowerback -0.915001 0.519612 5.78131
upperback -3.67171 0.719861 2.69664
thorax -3.24081 0.1881 -0.464723
lowerneck -11.6842 -9.75381 -10.4942
upperneck 14.5315 -13.9228 12.8044
head 8.07327 -6.28907 4.31998
rclavicle 4.73977e-015 -1.1778e-014
rhumerus 54.3302 58.1744 -17.1685
rradius 87.0465
rwrist 23.9431
rhand -21.3799 -14.5371
rfingers 7.12502
rthumb 5.00758 -44.4579
lclavicle 4.73977e-015 -1.1778e-014
lhumerus -40.0377 25.8805 74.0032
lradius 27.3743
lwrist -31.1298
lhand -11.0354 19.4144
lfingers 7.12502
lthumb 14.9864 48.8521
rfemur -19.2667 2.11986 30.9839
rtibia 20.3001
rfoot -3.67535 -7.63778
rtoes 22.2404
lfemur -14.4709 0.372845 -7.43382
ltibia 53.6527
lfoot 2.6717 -4.11289
ltoes -17.3247
374
root 4.69885 17.9577 4.44089 81.1686 -81.1707 -75.9149
lowerback -0.851562 0.612707 6.0177
upperback -3.65989 0.850143 2.75162
thorax -3.25688 0.245678 -0.54195
lowerneck -11.6193 -9.82079 -10.5205
upperneck 14.4685 -14.0526 12.9924
head 8.07469 -6.34263 4.37015
rclavicle 1.62289e-015 -1.77415e-014
rhumerus 56.0967 58.7467 -15.9759
rradius 87.8457
rwrist 23.6302
rhand -21.3211 -13.5311
rfingers 7.12502
rthumb 5.06433 -43.4506
lclavicle 1.62289e-015 -1.77415e-014
lhumerus -39.5506 25.0438 75.1023
lradius 28.0345
lwrist -30.4305
lhand -11.1299 19.2897
lfingers 7.12502
lthumb 14.8953 48.7342
rfemur -18.622 2.20398 31.2879
rtibia 20.1428
rfoot -3.9999 -7.44943
rtoes 22.285
lfemur -15.4651 0.526759 -7.16594
ltibia 54.4637
lfoot 2.61033 -4.13348
ltoes -17.0829
375
root 4.56456 17.9674 4.43441 82.4416 -81.0411 -77.2275
lowerback -0.788428 0.704666 6.24229
upperback -3.64775 0.979064 2.80283
thorax -3.27185 0.302906 -0.616535
lowerneck -11.5569 -9.88746 -10.5486
upperneck 14.4062 -14.1814 13.1801
head 8.07713 -6.39581 4.42047
rclavicle 5.29264e-015 -1.31446e-014
rhumerus 57.6301 59.2318 -14.9693
rradius 88.579
rwrist 23.3315
rhand -21.2667 -12.5547
rfingers 7.12502
rthumb 5.11685 -42.473
lclavicle 5.29264e-015 -1.31446e-014
lhumerus -39.0836 24.1829 76.1791
lradius 28.7333
lwrist -29.728
lhand -11.2286 19.1595
lfingers 7.12502
lthumb 14.8003 48.611
rfemur -17.9762 2.27776 31.5765
rtibia 19.9695
rfoot -4.3229 -7.27972
rtoes 22.2957
lfemur -16.4515 0.664179 -6.91099
ltibia 55.1685
lfoot 2.47967 -4.13058
ltoes -16.8472
